<svg width="170" height="40" viewBox="0 0 170 40" fill="none" xmlns="http://www.w3.org/2000/svg">
<path d="M14.6009 23.3993C15.3117 23.3993 16.085 23.4538 16.8144 23.5577C16.9804 23.5814 17.1328 23.4664 17.1328 23.314V21.6383C17.1328 21.5036 17.2533 21.3942 17.402 21.3942H22.832C22.9807 21.3942 23.1013 21.5036 23.1013 21.6383V25.1722C23.1013 25.2747 23.1723 25.366 23.2777 25.403C23.8911 25.6187 24.3573 25.853 24.7975 26.1413C25.6038 26.6693 26.0893 27.3435 26.212 28.0869C26.2372 28.2393 26.3963 28.351 26.5606 28.3109C27.5985 28.0576 28.5535 27.6642 29.3903 27.1454C29.6745 26.9693 30.0073 26.8119 30.2443 26.6732C30.3165 26.631 30.3571 26.5573 30.3571 26.4794V20.5518C30.3571 20.4915 30.3325 20.4335 30.2881 20.3885L20.2883 10.3149C20.1818 10.2075 19.9962 10.207 19.8889 10.3138L9.71296 20.4507C9.66786 20.4957 9.64285 20.5543 9.64285 20.6149V23.9262C9.64285 24.0852 9.80789 24.2017 9.97749 24.1611C10.5535 24.0232 11.1042 23.8772 11.7267 23.7241C12.6039 23.5086 13.5775 23.3993 14.6009 23.3993Z" fill="#5A8661" stroke="#5A8661" stroke-width="1.5" stroke-linejoin="round"/>
<path d="M19.8845 6.51758C19.9912 6.40909 20.1757 6.40956 20.2817 6.5186L31.5492 18.1093C31.5999 18.1616 31.6722 18.1915 31.7482 18.1915H33.6602C33.8922 18.1915 34.0144 17.9371 33.8592 17.7776L20.2582 3.80537C20.1523 3.69656 19.9682 3.69601 19.8614 3.80416L14.6522 9.08551C14.4873 9.25266 14.1866 9.1447 14.1866 8.91837V7.40149C14.1866 7.26458 14.0667 7.1536 13.9187 7.1536H10.1475C9.9996 7.1536 9.87969 7.26458 9.87969 7.40149V13.8434C9.87969 13.9047 9.85514 13.9639 9.81079 14.0094L6.14085 17.7776C5.98552 17.937 6.1078 18.1915 6.33979 18.1915H8.28996C8.36538 18.1915 8.4373 18.162 8.48806 18.1104L19.8845 6.51758Z" fill="#05503C" stroke="#05503C" stroke-width="1.5" stroke-linejoin="round"/>
<path d="M32.5466 28.4446C31.9258 28.4446 31.0901 28.68 30.0281 29.3035C28.0864 30.4432 25.7098 30.945 23.5382 30.945C21.7728 30.945 20.1432 30.6136 18.9923 30.0239C18.4221 29.7317 18.4238 29.6342 18.7545 29.6342C19.4188 29.6342 21.4104 30.0278 22.7602 30.0278C23.4243 30.0278 23.9331 29.9325 24.0521 29.6482C24.6019 28.3332 22.4699 27.9097 20.2405 27.1393C18.6084 26.575 16.6163 26.1491 14.7193 26.1489C13.9285 26.1489 13.1471 26.2229 12.4218 26.3918C9.38247 27.0995 7.12124 27.6459 6.25793 27.8734C6.14618 27.9028 6.07143 27.9949 6.07143 28.0995V34.9677C6.07143 35.1319 6.25177 35.2469 6.4249 35.1945C7.69215 34.8106 9.07483 34.4696 9.89191 34.4696C11.5322 34.4696 18.1694 36.2766 21.9274 36.2766C22.4537 36.2766 22.925 36.2412 23.317 36.1604C26.5067 35.5028 32.0441 31.6516 33.5471 30.3368C34.2687 29.7055 33.9834 28.4446 32.5466 28.4446Z" fill="#5A8661" stroke="#5A8661" stroke-width="1.5" stroke-linejoin="round"/>
<path d="M49.61 14.625H52.0163V26.5H49.61V21.5H44.2975V26.5H41.8913V14.625H44.2975V19.3125H49.61V14.625ZM59.6838 26.6562C56.7463 26.6562 54.84 24.75 54.84 21.8125C54.84 18.9062 56.8088 16.9688 59.6838 16.9688C62.6213 16.9688 64.5275 18.875 64.5275 21.8125C64.5275 24.7188 62.5588 26.6562 59.6838 26.6562ZM59.6838 24.7812C61.2463 24.7812 62.215 23.6562 62.215 21.8125C62.215 19.9688 61.2463 18.8438 59.6838 18.8438C58.1213 18.8438 57.1525 19.9688 57.1525 21.8125C57.1525 23.6562 58.1213 24.7812 59.6838 24.7812ZM73.3512 17.125H75.6012V26.5H73.6012L73.4762 25.125C72.7887 26.0625 71.6325 26.6562 70.2887 26.6562C68.2887 26.6562 66.8825 25.2188 66.8825 23.0625V17.125H69.1325V22.5312C69.1325 23.9688 69.82 24.7812 70.9762 24.7812C72.2887 24.7812 73.3512 23.8438 73.3512 22.5V17.125ZM81.9562 26.6562C80.2687 26.6562 78.7687 26.125 77.7687 25.2188L78.9562 23.625C79.7062 24.3125 80.7375 24.75 82.0187 24.75C82.9875 24.75 83.7375 24.4688 83.7375 23.875C83.7375 23.4062 83.3312 23.125 81.675 22.75C79.2375 22.1562 78.2062 21.2812 78.2062 19.8125C78.2062 18.0938 79.7062 16.9688 82.05 16.9688C83.3937 16.9688 84.6437 17.375 85.7375 18.125L84.55 19.7812C83.7375 19.1562 82.8937 18.8438 81.8625 18.8438C80.9562 18.8438 80.3625 19.1562 80.3625 19.6875C80.3625 20.1875 80.7687 20.4688 82.2062 20.8125C84.8937 21.4688 85.8937 22.25 85.8937 23.7812C85.8937 25.5938 84.425 26.6562 81.9562 26.6562ZM89.7487 22.5312C89.9675 23.9375 90.905 24.7812 92.3737 24.7812C93.5925 24.7812 94.4675 24.3125 95.03 23.6562L96.4362 25C95.5925 25.9688 94.2487 26.6562 92.3737 26.6562C89.155 26.6562 87.4987 24.5938 87.4987 21.8125C87.4987 18.9375 89.3737 16.9688 92.2175 16.9688C94.9987 16.9688 96.8112 18.875 96.8112 21.8125C96.8112 22.0312 96.8112 22.2188 96.7175 22.5312H89.7487ZM92.2175 18.7812C90.905 18.7812 90.03 19.5625 89.78 20.875H94.53C94.28 19.5312 93.4362 18.7812 92.2175 18.7812Z" fill="#05503C"/>
<path d="M104.635 14.625C107.385 14.625 109.041 16.0625 109.041 18.375C109.041 20.7188 107.385 22.125 104.635 22.125H102.01V26.5H99.6038V14.625H104.635ZM104.354 20.1875C105.823 20.1875 106.604 19.5938 106.604 18.4375C106.604 17.25 105.823 16.6562 104.354 16.6562H102.01V20.1875H104.354ZM116.74 17C116.99 17 117.271 17.0312 117.521 17.0625L117.49 19.1875C117.021 19.125 116.552 19.0938 116.115 19.0938C114.677 19.0938 113.677 19.875 113.677 21.3438V26.5H111.427V17.125H113.427L113.552 18.5938C114.24 17.5938 115.365 17 116.74 17ZM123.408 26.6562C120.47 26.6562 118.564 24.75 118.564 21.8125C118.564 18.9062 120.533 16.9688 123.408 16.9688C126.345 16.9688 128.251 18.875 128.251 21.8125C128.251 24.7188 126.283 26.6562 123.408 26.6562ZM123.408 24.7812C124.97 24.7812 125.939 23.6562 125.939 21.8125C125.939 19.9688 124.97 18.8438 123.408 18.8438C121.845 18.8438 120.876 19.9688 120.876 21.8125C120.876 23.6562 121.845 24.7812 123.408 24.7812ZM130.919 15.875V13.875H133.356V15.875H130.919ZM130.419 29.6875C130.106 29.6875 129.731 29.6562 129.419 29.625V27.625C129.669 27.6562 129.919 27.6562 130.169 27.6562C130.669 27.6562 131.012 27.375 131.012 26.8125V17.125H133.262V26.7812C133.262 28.875 132.231 29.6875 130.419 29.6875ZM138.024 22.5312C138.243 23.9375 139.18 24.7812 140.649 24.7812C141.868 24.7812 142.743 24.3125 143.305 23.6562L144.711 25C143.868 25.9688 142.524 26.6562 140.649 26.6562C137.43 26.6562 135.774 24.5938 135.774 21.8125C135.774 18.9375 137.649 16.9688 140.493 16.9688C143.274 16.9688 145.086 18.875 145.086 21.8125C145.086 22.0312 145.086 22.2188 144.993 22.5312H138.024ZM140.493 18.7812C139.18 18.7812 138.305 19.5625 138.055 20.875H142.805C142.555 19.5312 141.711 18.7812 140.493 18.7812ZM151.691 26.6562C148.848 26.6562 146.91 24.7188 146.91 21.8125C146.91 18.9062 148.848 16.9688 151.691 16.9688C153.785 16.9688 155.441 18 155.973 19.7812L153.816 20.4375C153.473 19.4375 152.723 18.8438 151.66 18.8438C150.16 18.8438 149.223 20 149.223 21.8125C149.223 23.625 150.16 24.7812 151.66 24.7812C152.723 24.7812 153.473 24.1875 153.848 23.1875L155.973 23.8438C155.441 25.625 153.785 26.6562 151.691 26.6562ZM164.077 19H161.327V23.4375C161.327 24.3125 161.765 24.5938 162.577 24.5938C163.14 24.5938 163.546 24.5625 164.077 24.4375V26.4375C163.421 26.625 162.765 26.6875 162.077 26.6875C160.171 26.6875 159.077 25.75 159.077 23.9375V19H157.202V17.125H159.077L159.327 14.625H161.327V17.125H164.077V19Z" fill="#5A8661"/>
</svg>
