<svg width="213" height="57" viewBox="0 0 213 57" fill="none" xmlns="http://www.w3.org/2000/svg">
<path d="M18.4413 33.199C19.4364 33.199 20.519 33.2744 21.5401 33.418C21.7726 33.4507 21.9859 33.2918 21.9859 33.0811V30.7647C21.9859 30.5785 22.1547 30.4273 22.3629 30.4273H29.9648C30.1729 30.4273 30.3418 30.5785 30.3418 30.7647V35.6498C30.3418 35.7915 30.4412 35.9177 30.5887 35.9688C31.4475 36.2671 32.1003 36.591 32.7165 36.9894C33.8454 37.7194 34.5251 38.6512 34.6968 39.6789C34.7321 39.8896 34.9549 40.044 35.1848 39.9887C36.6379 39.6385 37.9749 39.0946 39.1464 38.3775C39.5443 38.134 40.0103 37.9164 40.342 37.7248C40.4431 37.6664 40.5 37.5645 40.5 37.4569V29.2628C40.5 29.1795 40.4655 29.0992 40.4033 29.0371L26.4036 15.1117C26.2545 14.9633 25.9948 14.9627 25.8445 15.1103L11.5981 29.123C11.535 29.1852 11.5 29.2662 11.5 29.35V33.9274C11.5 34.1472 11.7311 34.3082 11.9685 34.2522C12.7749 34.0615 13.5459 33.8596 14.4174 33.6481C15.6455 33.3502 17.0085 33.199 18.4413 33.199Z" fill="#5A8661" stroke="#5A8661" stroke-width="2" stroke-linejoin="round"/>
<path d="M25.8383 9.86254C25.9877 9.71257 26.246 9.71322 26.3943 9.86394L42.1688 25.8864C42.2399 25.9587 42.3411 26 42.4474 26H45.1243C45.449 26 45.6202 25.6484 45.4029 25.4279L26.3615 6.1133C26.2132 5.9629 25.9554 5.96213 25.806 6.11164L18.5131 13.4123C18.2823 13.6434 17.8612 13.4941 17.8612 13.1813V11.0844C17.8612 10.8952 17.6933 10.7417 17.4862 10.7417H12.2065C11.9994 10.7417 11.8316 10.8952 11.8316 11.0844V19.9894C11.8316 20.0742 11.7972 20.1559 11.7351 20.2189L6.59719 25.4279C6.37974 25.6482 6.55093 26 6.8757 26H9.60595C9.71154 26 9.81222 25.9592 9.88329 25.8879L25.8383 9.86254Z" fill="#05503C" stroke="#05503C" stroke-width="2" stroke-linejoin="round"/>
<path d="M43.5653 40.1734C42.6962 40.1734 41.5261 40.4988 40.0393 41.3608C37.321 42.9362 33.9938 43.6299 30.9534 43.6299C28.4819 43.6299 26.2004 43.1717 24.5892 42.3566C23.7909 41.9527 23.7933 41.8178 24.2563 41.8178C25.1863 41.8178 27.9746 42.362 29.8642 42.362C30.7941 42.362 31.5063 42.2302 31.6729 41.8372C32.4427 40.0194 29.4579 39.434 26.3368 38.369C24.0518 37.589 21.2629 37.0002 18.6071 37C17.4998 37 16.4059 37.1023 15.3906 37.3357C11.1355 38.314 7.96975 39.0694 6.7611 39.3838C6.60465 39.4245 6.5 39.5518 6.5 39.6964V49.1907C6.5 49.4177 6.75247 49.5766 6.99487 49.5041C8.76901 48.9735 10.7048 48.5021 11.8487 48.5021C14.1451 48.5021 23.4372 51 28.6983 51C29.4352 51 30.0951 50.9511 30.6438 50.8394C35.1093 49.9304 42.8618 44.6066 44.966 42.7891C45.9762 41.9165 45.5768 40.1734 43.5653 40.1734Z" fill="#5A8661" stroke="#5A8661" stroke-width="2" stroke-linejoin="round"/>
<path d="M63.8875 22.1562H66.8953V37H63.8875V30.75H57.2469V37H54.2391V22.1562H57.2469V28.0156H63.8875V22.1562ZM76.4797 37.1953C72.8078 37.1953 70.425 34.8125 70.425 31.1406C70.425 27.5078 72.8859 25.0859 76.4797 25.0859C80.1516 25.0859 82.5344 27.4688 82.5344 31.1406C82.5344 34.7734 80.0734 37.1953 76.4797 37.1953ZM76.4797 34.8516C78.4328 34.8516 79.6437 33.4453 79.6437 31.1406C79.6437 28.8359 78.4328 27.4297 76.4797 27.4297C74.5266 27.4297 73.3156 28.8359 73.3156 31.1406C73.3156 33.4453 74.5266 34.8516 76.4797 34.8516ZM93.5641 25.2812H96.3766V37H93.8766L93.7203 35.2812C92.8609 36.4531 91.4156 37.1953 89.7359 37.1953C87.2359 37.1953 85.4781 35.3984 85.4781 32.7031V25.2812H88.2906V32.0391C88.2906 33.8359 89.15 34.8516 90.5953 34.8516C92.2359 34.8516 93.5641 33.6797 93.5641 32V25.2812ZM104.32 37.1953C102.211 37.1953 100.336 36.5312 99.0859 35.3984L100.57 33.4062C101.508 34.2656 102.797 34.8125 104.398 34.8125C105.609 34.8125 106.547 34.4609 106.547 33.7188C106.547 33.1328 106.039 32.7812 103.969 32.3125C100.922 31.5703 99.6328 30.4766 99.6328 28.6406C99.6328 26.4922 101.508 25.0859 104.437 25.0859C106.117 25.0859 107.68 25.5938 109.047 26.5312L107.562 28.6016C106.547 27.8203 105.492 27.4297 104.203 27.4297C103.07 27.4297 102.328 27.8203 102.328 28.4844C102.328 29.1094 102.836 29.4609 104.633 29.8906C107.992 30.7109 109.242 31.6875 109.242 33.6016C109.242 35.8672 107.406 37.1953 104.32 37.1953ZM114.061 32.0391C114.334 33.7969 115.506 34.8516 117.342 34.8516C118.866 34.8516 119.959 34.2656 120.662 33.4453L122.42 35.125C121.366 36.3359 119.686 37.1953 117.342 37.1953C113.319 37.1953 111.248 34.6172 111.248 31.1406C111.248 27.5469 113.592 25.0859 117.147 25.0859C120.623 25.0859 122.889 27.4688 122.889 31.1406C122.889 31.4141 122.889 31.6484 122.772 32.0391H114.061ZM117.147 27.3516C115.506 27.3516 114.412 28.3281 114.1 29.9688H120.037C119.725 28.2891 118.67 27.3516 117.147 27.3516Z" fill="#05503C"/>
<path d="M132.669 22.1562C136.106 22.1562 138.177 23.9531 138.177 26.8438C138.177 29.7734 136.106 31.5312 132.669 31.5312H129.387V37H126.38V22.1562H132.669ZM132.317 29.1094C134.153 29.1094 135.13 28.3672 135.13 26.9219C135.13 25.4375 134.153 24.6953 132.317 24.6953H129.387V29.1094H132.317ZM147.8 25.125C148.112 25.125 148.464 25.1641 148.777 25.2031L148.737 27.8594C148.152 27.7812 147.566 27.7422 147.019 27.7422C145.222 27.7422 143.972 28.7188 143.972 30.5547V37H141.159V25.2812H143.659L143.816 27.1172C144.675 25.8672 146.081 25.125 147.8 25.125ZM156.134 37.1953C152.462 37.1953 150.08 34.8125 150.08 31.1406C150.08 27.5078 152.541 25.0859 156.134 25.0859C159.806 25.0859 162.189 27.4688 162.189 31.1406C162.189 34.7734 159.728 37.1953 156.134 37.1953ZM156.134 34.8516C158.087 34.8516 159.298 33.4453 159.298 31.1406C159.298 28.8359 158.087 27.4297 156.134 27.4297C154.181 27.4297 152.97 28.8359 152.97 31.1406C152.97 33.4453 154.181 34.8516 156.134 34.8516ZM165.523 23.7188V21.2188H168.57V23.7188H165.523ZM164.898 40.9844C164.508 40.9844 164.039 40.9453 163.648 40.9062V38.4062C163.961 38.4453 164.273 38.4453 164.586 38.4453C165.211 38.4453 165.641 38.0938 165.641 37.3906V25.2812H168.453V37.3516C168.453 39.9688 167.164 40.9844 164.898 40.9844ZM174.405 32.0391C174.678 33.7969 175.85 34.8516 177.686 34.8516C179.209 34.8516 180.303 34.2656 181.006 33.4453L182.764 35.125C181.709 36.3359 180.03 37.1953 177.686 37.1953C173.662 37.1953 171.592 34.6172 171.592 31.1406C171.592 27.5469 173.936 25.0859 177.491 25.0859C180.967 25.0859 183.233 27.4688 183.233 31.1406C183.233 31.4141 183.233 31.6484 183.116 32.0391H174.405ZM177.491 27.3516C175.85 27.3516 174.756 28.3281 174.444 29.9688H180.381C180.069 28.2891 179.014 27.3516 177.491 27.3516ZM191.489 37.1953C187.934 37.1953 185.512 34.7734 185.512 31.1406C185.512 27.5078 187.934 25.0859 191.489 25.0859C194.106 25.0859 196.177 26.375 196.841 28.6016L194.145 29.4219C193.716 28.1719 192.778 27.4297 191.45 27.4297C189.575 27.4297 188.403 28.875 188.403 31.1406C188.403 33.4062 189.575 34.8516 191.45 34.8516C192.778 34.8516 193.716 34.1094 194.184 32.8594L196.841 33.6797C196.177 35.9062 194.106 37.1953 191.489 37.1953ZM206.972 27.625H203.534V33.1719C203.534 34.2656 204.081 34.6172 205.097 34.6172C205.8 34.6172 206.308 34.5781 206.972 34.4219V36.9219C206.152 37.1562 205.331 37.2344 204.472 37.2344C202.089 37.2344 200.722 36.0625 200.722 33.7969V27.625H198.378V25.2812H200.722L201.034 22.1562H203.534V25.2812H206.972V27.625Z" fill="#5A8661"/>
</svg>
