<svg xmlns="http://www.w3.org/2000/svg" xml:space="preserve" width="2000" height="1500"
    data-id="lg_XZ1lpPJI70yPFF9LzO" data-version="1" viewBox="0 0 2000 1500"><path fill="#fff" stroke="transparent" d="M0 0h2000v1500H0z"/><g data-padding="20"><g transform="translate(-1642.349 -1247.03)scale(2.57406)"><rect width="573.143" height="101.7" x="475.195" y="689.701" fill="none" rx="0" ry="0" transform="matrix(.98 0 0 .98 280 50.09)"/><path fill="#06402b" d="M778.49 803.41h-8.61v-62.94h8.61v28.09h33.88v-28.09h8.6v62.94h-8.6V774.8h-33.88Zm-5.97 0h-8.96v-3.6q0-.79.35-1.27.36-.48 1.06-.57l6.58-1.4Zm12.29 0h-8.96l.97-6.84 6.58 1.4q.7.09 1.06.57.35.48.35 1.27Zm-21.25-62.94h8.96l-.97 6.85-6.58-1.4q-.7-.18-1.06-.62-.35-.44-.35-1.23Zm12.29 0h8.96v3.6q0 .79-.35 1.23-.36.44-1.06.62l-6.58 1.4Zm39.07 62.94h-8.96v-3.6q0-.79.35-1.27t1.06-.57l6.58-1.4Zm12.37 0h-8.95l.97-6.84 6.58 1.4q.7.09 1.05.57t.35 1.27Zm-21.33-62.94h8.96l-.97 6.85-6.58-1.4q-.71-.18-1.06-.62t-.35-1.23Zm12.38 0h8.95v3.6q0 .79-.35 1.23t-1.05.62l-6.58 1.4Zm36.09 17.74q6.67 0 11.37 2.85 4.69 2.85 7.24 8.03 2.54 5.18 2.54 12.03 0 6.84-2.54 12.02-2.55 5.18-7.24 8.04-4.7 2.85-11.37 2.85-6.5 0-11.28-2.85-4.79-2.86-7.38-8.04-2.58-5.18-2.58-12.02 0-6.85 2.58-12.03 2.59-5.18 7.38-8.03 4.78-2.85 11.28-2.85m0 39.67q6.58 0 9.83-4.39t3.25-12.29q0-5.35-1.45-9.08t-4.35-5.75q-2.89-2.02-7.28-2.02-4.48 0-7.42 2.06-2.94 2.07-4.34 5.84-1.41 3.78-1.41 8.95 0 7.64 3.25 12.16t9.92 4.52m45.91 6.25q-4.83 0-8.16-2.15-3.34-2.16-5.05-5.93t-1.71-8.78v-28.35h7.81v28.35q0 5.09 2.32 7.86 2.33 2.76 7.07 2.76 3.43 0 6.45-1.62 3.03-1.62 5.58-4.52v-32.83h7.81v44.5h-4.65q-1.76 0-2.11-1.66l-.61-4.74q-2.9 3.16-6.5 5.13-3.6 1.98-8.25 1.98m28.44-.71h-8.95l.96-6.84 6.59 1.4q.7.09 1.05.57t.35 1.27Zm-49.68-44.5h8.95l-.97 6.84-6.58-1.4q-.7-.18-1.05-.61-.35-.44-.35-1.23Zm29.23 0h8.95l-.96 6.84-6.59-1.4q-.7-.18-1.05-.61-.35-.44-.35-1.23Zm39.06 45.21q-3.16 0-7.07-.71-3.9-.7-6.71-1.75v-6.5l3.86.88q1.14.79 3.64 1.62 2.51.84 5.84.84 5.01 0 7.38-2.07 2.37-2.06 2.37-5.04 0-2.64-1.58-4.04-1.58-1.41-4.22-2.28-2.63-.88-5.7-1.85-3.16-1.05-5.8-2.45-2.63-1.41-4.21-3.65t-1.58-5.66q0-3.95 2.06-6.93 2.06-2.99 5.62-4.66 3.56-1.66 8.03-1.66 2.55 0 5.66.61 3.12.61 6.81 1.84v5.27l-4.66-.61q-1.84-.53-3.73-.88-1.88-.35-3.64-.35-2.54 0-4.52.79-1.97.79-3.12 2.19-1.14 1.41-1.14 3.25 0 2.46 1.89 3.91 1.89 1.44 4.61 2.32t5.18 1.67q2.89.88 5.48 2.28 2.59 1.41 4.26 3.69t1.67 5.97q0 3.95-2.06 7.11-2.07 3.16-5.8 5-3.73 1.85-8.82 1.85m9.66-33.45-.88-6.58 5.62 1.14v6.85h-2.9q-.88 0-1.32-.4-.44-.39-.52-1.01m-18.7 20.81.88 6.58-5.62-1.14v-6.85h2.9q.96 0 1.36.4.39.39.48 1.01m53.2 12.54q-6.41 0-11.2-2.9-4.78-2.9-7.41-8.25-2.64-5.36-2.64-12.64 0-6.23 2.55-11.24 2.54-5 7.24-7.9 4.7-2.89 11.02-2.89 5.53 0 9.65 2.45 4.13 2.46 6.46 6.89 2.32 4.44 2.32 10.58 0 1.85-.39 2.46-.4.61-1.54.61h-29.58v1.15q.44 7.37 4.12 11.45 3.69 4.08 10.01 4.08 2.72 0 5.4-1.09 2.68-1.1 4.74-2.15 2.06-1.06 2.94-1.06.97 0 1.49.7l2.2 2.9q-1.76 2.28-4.7 3.82t-6.28 2.28q-3.33.75-6.4.75m-13.26-27.74h24.23q0-5.44-2.99-8.87-2.98-3.42-8.25-3.42-5.7 0-8.95 3.25-3.25 3.24-4.04 9.04m52.06 27.12h-8.61v-62.94h18.7q7.55 0 12.77 2.29 5.23 2.28 7.95 6.62 2.72 4.35 2.72 10.58 0 6.06-2.85 10.53-2.86 4.48-8.12 6.94-5.27 2.46-12.47 2.46h-10.09Zm0-56.18v25.9h10.09q4.65 0 7.99-1.63 3.33-1.62 5.13-4.56t1.8-6.98q0-5.97-3.73-9.35t-11.19-3.38Zm-5.97 56.18h-8.96v-3.6q0-.79.35-1.27.36-.48 1.06-.57l6.58-1.4Zm-8.96-62.94h8.96l-.97 6.85-6.58-1.4q-.7-.18-1.06-.62-.35-.44-.35-1.23Zm21.25 62.94h-8.96l.97-6.84 6.58 1.4q.7.09 1.06.57.35.48.35 1.27Zm45.99 0h-7.81v-44.5h4.48q1.32 0 1.84.48.53.48.62 1.71l.52 6.94q2.29-4.66 5.62-7.29 3.34-2.63 7.9-2.63 1.85 0 3.34.44t2.72 1.14l-.97 5.88q-.08.53-.48.79-.39.26-.92.26-.62 0-2.37-.39-1.76-.4-3.07-.4-4.04 0-6.81 2.37-2.76 2.37-4.61 6.85Zm6.32 0h-8.95l.97-6.84 6.58 1.4q.7.09 1.05.57t.35 1.27Zm-11.49 0h-8.96v-3.6q0-.79.35-1.27t1.06-.57l6.58-1.4Zm-8.96-44.5h8.96l-.97 6.84-6.58-1.4q-.71-.18-1.06-.61-.35-.44-.35-1.23Zm58.82-.7q6.67 0 11.36 2.85 4.7 2.85 7.25 8.03 2.54 5.18 2.54 12.03 0 6.84-2.54 12.02-2.55 5.18-7.25 8.04-4.69 2.85-11.36 2.85-6.5 0-11.28-2.85-4.79-2.86-7.38-8.04t-2.59-12.02q0-6.85 2.59-12.03t7.38-8.03q4.78-2.85 11.28-2.85m0 39.67q6.58 0 9.83-4.39t3.25-12.29q0-5.35-1.45-9.08t-4.35-5.75q-2.89-2.02-7.28-2.02-4.48 0-7.42 2.06-2.94 2.07-4.35 5.84-1.4 3.78-1.4 8.95 0 7.64 3.25 12.16 3.24 4.52 9.92 4.52m28.26 21.51q-1.84 0-2.94-.26-1.1-.27-2.06-.62l.35-3.77q.18-1.49.83-1.36.66.13 3.03.13 1.85 0 3.07-.62 1.23-.61 1.85-2.23.61-1.63.61-4.79v-46.96h7.82v47.22q0 3.6-.93 6.11-.92 2.5-2.59 4.08-1.66 1.58-3.95 2.32-2.28.75-5.09.75m-1.58-60.48h8.96l-.97 6.84-6.58-1.4q-.71-.18-1.06-.61-.35-.44-.35-1.23Zm10.1-8.43q-2.2 0-3.87-1.67-1.66-1.67-1.66-3.86 0-2.28 1.66-3.95 1.67-1.67 3.87-1.67 2.28 0 3.95 1.67t1.67 3.95q0 2.19-1.67 3.86t-3.95 1.67m34.85 53.55q-6.41 0-11.2-2.9-4.78-2.9-7.41-8.25-2.64-5.36-2.64-12.64 0-6.23 2.55-11.24 2.55-5 7.24-7.9 4.7-2.89 11.02-2.89 5.53 0 9.65 2.45 4.13 2.46 6.46 6.89 2.32 4.44 2.32 10.58 0 1.85-.39 2.46-.4.61-1.54.61h-29.58v1.15q.44 7.37 4.12 11.45 3.69 4.08 10.01 4.08 2.72 0 5.4-1.09 2.68-1.1 4.74-2.15 2.06-1.06 2.94-1.06.97 0 1.49.7l2.2 2.9q-1.76 2.28-4.7 3.82t-6.27 2.28q-3.34.75-6.41.75m-13.26-27.74h24.23q0-5.44-2.98-8.87-2.99-3.42-8.26-3.42-5.7 0-8.95 3.25-3.25 3.24-4.04 9.04m56.89 27.74q-5.8 0-10.23-2.85-4.43-2.86-6.94-8.04-2.5-5.18-2.5-12.02 0-6.67 2.37-11.85t7.02-8.12q4.66-2.94 11.59-2.94 2.72 0 6.32.92t6.85 2.24v4.74l-4.57-.27q-1.75-.61-3.73-1.05-1.97-.44-4.43-.44-4.48 0-7.42 2.06-2.94 2.07-4.43 5.84-1.49 3.78-1.49 8.87 0 7.63 3.33 12.24 3.34 4.61 9.57 4.61 3.43 0 5.62-1.1 2.19-1.09 3.6-2.19 1.4-1.1 2.19-1.1.44 0 .84.18.39.17.66.52l2.19 2.9q-2.9 3.51-7.2 5.18t-9.21 1.67m9.74-32.48-.88-6.59 5.62 1.15v6.84h-2.9q-.88 0-1.31-.39-.44-.4-.53-1.01m28.27 32.57q-5.27 0-8.12-2.94-2.86-2.95-2.86-8.48v-27.21h-5.35q-.7 0-1.19-.44-.48-.44-.48-1.31v-3.08l7.29-.96 1.84-13.7q.17-1.49 1.76-1.49h3.95v15.28h12.72v5.7h-12.72v26.69q0 2.81 1.36 4.17t3.55 1.36q.97 0 2.11-.53t2.1-1.05q.97-.53 1.41-.53.61 0 1.05.7l2.29 3.78q-2.02 1.84-4.88 2.94-2.85 1.1-5.83 1.1"/></g><path fill="transparent" stroke="transparent" stroke-width="2.669" d="M250 616.548h1500v266.904H250z"/></g></svg>