<svg width="18" height="14" viewBox="0 0 18 14" fill="none" xmlns="http://www.w3.org/2000/svg">
<path d="M3.125 1L15.875 13" stroke="#5A8661" stroke-width="1.5" stroke-linecap="round" stroke-linejoin="round"/>
<path d="M4.77022 4.23043C2.33183 5.71091 1 8 1 8C1 8 3.90909 13 9 13C10.6402 13 12.0539 12.481 13.2169 11.7774M8.2 3.04159C8.46032 3.01438 8.72704 3 9 3C14.0909 3 17 8 17 8C17 8 16.4466 8.95121 15.4 10.0239" stroke="#5A8661" stroke-width="1.5" stroke-linecap="round" stroke-linejoin="round"/>
<path d="M11.4125 9.74101C10.905 10.2074 10.2348 10.491 9.50004 10.491C7.91563 10.491 6.63129 9.17234 6.63129 7.54557C6.63129 6.73684 6.94869 6.00431 7.46257 5.47205" stroke="#5A8661" stroke-width="1.5" stroke-linecap="round" stroke-linejoin="round"/>
</svg>
