<svg width="18" height="12" viewBox="0 0 18 12" fill="none" xmlns="http://www.w3.org/2000/svg">
<path d="M17.8795 5.57339C17.3037 4.62225 14.137 -0.150583 8.7571 0.00365552C3.78207 0.123619 0.903218 4.28806 0.120529 5.57339C0.0415692 5.70365 0 5.85141 0 6.00183C0 6.15224 0.0415692 6.30001 0.120529 6.43027C0.687304 7.36427 3.7191 12 9.01799 12H9.2429C14.2179 11.88 17.1058 7.71559 17.8795 6.43027C17.9584 6.30001 18 6.15224 18 6.00183C18 5.85141 17.9584 5.70365 17.8795 5.57339ZM9.19792 10.2862C5.32046 10.3719 2.79247 7.21003 2.00078 6.00183C2.90042 4.62225 5.24849 1.80311 8.84706 1.71742C12.7065 1.62316 15.2435 4.79362 16.0442 6.00183C15.1176 7.38141 12.7965 10.2005 9.19792 10.2862Z" fill="#5A8661"/>
<path d="M9.00001 3.00269C8.37724 3.00269 7.76847 3.17858 7.25066 3.50812C6.73285 3.83767 6.32926 4.30606 6.09094 4.85407C5.85262 5.40208 5.79027 6.0051 5.91176 6.58687C6.03326 7.16863 6.33315 7.70302 6.77351 8.12245C7.21387 8.54188 7.77492 8.82751 8.38572 8.94323C8.99651 9.05895 9.62962 8.99956 10.205 8.77257C10.7803 8.54557 11.2721 8.16117 11.6181 7.66798C11.9641 7.17478 12.1488 6.59494 12.1488 6.00177C12.1488 5.20636 11.817 4.44354 11.2265 3.8811C10.636 3.31866 9.83511 3.00269 9.00001 3.00269ZM9.00001 7.2871C8.73311 7.2871 8.4722 7.21171 8.25029 7.07048C8.02837 6.92925 7.8554 6.72851 7.75327 6.49364C7.65113 6.25878 7.6244 6.00035 7.67647 5.75102C7.72854 5.50169 7.85707 5.27267 8.04579 5.09291C8.23452 4.91316 8.47497 4.79074 8.73674 4.74115C8.99851 4.69155 9.26984 4.71701 9.51642 4.81429C9.76301 4.91157 9.97376 5.07632 10.122 5.28769C10.2703 5.49906 10.3495 5.74756 10.3495 6.00177C10.3495 6.34266 10.2073 6.66959 9.95422 6.91063C9.70115 7.15168 9.35791 7.28709 9.00001 7.2871Z" fill="#5A8661"/>
</svg>
