<svg width="26" height="26" viewBox="0 0 26 26" fill="none" xmlns="http://www.w3.org/2000/svg">
<path d="M13 2C19.0751 2 24 6.92487 24 13C24 19.0751 19.0751 24 13 24C6.92487 24 2 19.0751 2 13C2 6.92487 6.92487 2 13 2ZM13 17.3486C12.4349 17.3486 11.9767 17.807 11.9766 18.3721C11.9766 18.9372 12.4349 19.3955 13 19.3955C13.5651 19.3955 14.0234 18.9372 14.0234 18.3721C14.0233 17.807 13.565 17.3487 13 17.3486ZM12.9062 7.11621C11.9614 7.11621 11.1107 7.516 10.498 8.14844C10.1641 8.49325 9.89945 8.9083 9.72461 9.36914C9.57431 9.76544 9.77362 10.2091 10.1699 10.3594C10.5661 10.5095 11.0088 10.3101 11.1592 9.91406C11.2603 9.64754 11.4123 9.41017 11.6006 9.21582C11.9447 8.86058 12.4057 8.65137 12.9062 8.65137C13.9098 8.65162 14.791 9.52046 14.791 10.6777C14.791 11.6934 14.1055 12.496 13.2607 12.6689C12.7214 12.7792 12.1388 13.2477 12.1387 13.9834V15.0469C12.1389 15.4705 12.4825 15.8135 12.9062 15.8135C13.3298 15.8132 13.6726 15.4704 13.6729 15.0469V14.1494C15.2166 13.7811 16.3252 12.3443 16.3252 10.6777C16.3251 8.74907 14.8319 7.11646 12.9062 7.11621Z" fill="#5A8661"/>
</svg>
