<svg width="20" height="20" viewBox="0 0 20 20" fill="none" xmlns="http://www.w3.org/2000/svg">
<path d="M10 20C4.48372 20 0 15.5163 0 10C0 4.48372 4.48372 0 10 0C15.5163 0 20 4.48372 20 10C20 15.5163 15.5163 20 10 20ZM10 1.39535C5.25581 1.39535 1.39535 5.25581 1.39535 10C1.39535 14.7442 5.25581 18.6047 10 18.6047C14.7442 18.6047 18.6047 14.7442 18.6047 10C18.6047 5.25581 14.7442 1.39535 10 1.39535Z" fill="#6FA6FF"/>
<path d="M9.99998 11.6279C9.61859 11.6279 9.30231 11.3117 9.30231 10.9303V6.2791C9.30231 5.8977 9.61859 5.58142 9.99998 5.58142C10.3814 5.58142 10.6977 5.8977 10.6977 6.2791V10.9303C10.6977 11.3117 10.3814 11.6279 9.99998 11.6279Z" fill="#6FA6FF"/>
<path d="M10 14.651C9.87907 14.651 9.75814 14.6231 9.64651 14.5766C9.53488 14.5301 9.43255 14.4649 9.33953 14.3812C9.25581 14.2882 9.19069 14.1952 9.14418 14.0742C9.09767 13.9626 9.06976 13.8417 9.06976 13.7207C9.06976 13.5998 9.09767 13.4789 9.14418 13.3673C9.19069 13.2556 9.25581 13.1533 9.33953 13.0603C9.43255 12.9766 9.53488 12.9114 9.64651 12.8649C9.86976 12.7719 10.1302 12.7719 10.3535 12.8649C10.4651 12.9114 10.5674 12.9766 10.6605 13.0603C10.7442 13.1533 10.8093 13.2556 10.8558 13.3673C10.9023 13.4789 10.9302 13.5998 10.9302 13.7207C10.9302 13.8417 10.9023 13.9626 10.8558 14.0742C10.8093 14.1952 10.7442 14.2882 10.6605 14.3812C10.5674 14.4649 10.4651 14.5301 10.3535 14.5766C10.2419 14.6231 10.1209 14.651 10 14.651Z" fill="#6FA6FF"/>
</svg>
