<svg width="24" height="24" viewBox="0 0 24 24" fill="none" xmlns="http://www.w3.org/2000/svg">
<path d="M20.3333 9.10008V5.31675C20.3333 4.14175 19.8 3.66675 18.475 3.66675H15.1083C13.7833 3.66675 13.25 4.14175 13.25 5.31675V9.09175C13.25 10.2751 13.7833 10.7417 15.1083 10.7417H18.475C19.8 10.7501 20.3333 10.2751 20.3333 9.10008Z" fill="#5A8661"/>
<path d="M20.3333 18.475V15.1083C20.3333 13.7833 19.8 13.25 18.475 13.25H15.1083C13.7833 13.25 13.25 13.7833 13.25 15.1083V18.475C13.25 19.8 13.7833 20.3333 15.1083 20.3333H18.475C19.8 20.3333 20.3333 19.8 20.3333 18.475Z" fill="#5A8661"/>
<path d="M10.75 9.10008V5.31675C10.75 4.14175 10.2167 3.66675 8.89167 3.66675H5.52501C4.20001 3.66675 3.66667 4.14175 3.66667 5.31675V9.09175C3.66667 10.2751 4.20001 10.7417 5.52501 10.7417H8.89167C10.2167 10.7501 10.75 10.2751 10.75 9.10008Z" fill="#5A8661"/>
<path d="M10.75 18.475V15.1083C10.75 13.7833 10.2167 13.25 8.89167 13.25H5.52501C4.20001 13.25 3.66667 13.7833 3.66667 15.1083V18.475C3.66667 19.8 4.20001 20.3333 5.52501 20.3333H8.89167C10.2167 20.3333 10.75 19.8 10.75 18.475Z" fill="#5A8661"/>
</svg>
