<svg width="15" height="25" viewBox="0 0 15 25" fill="none" xmlns="http://www.w3.org/2000/svg">
<path d="M12 1H3C1.89543 1 1 1.89543 1 3V22C1 23.1046 1.89543 24 3 24H12C13.1046 24 14 23.1046 14 22V3C14 1.89543 13.1046 1 12 1Z" stroke="#5A8661" stroke-width="1.6" stroke-linecap="round" stroke-linejoin="round"/>
<path d="M10.7758 1V2.31032C10.7758 2.65784 10.6378 2.99112 10.392 3.23685C10.1463 3.48258 9.81303 3.62064 9.46551 3.62064H5.53456C5.18704 3.62064 4.85376 3.48258 4.60803 3.23685C4.36229 2.99112 4.22424 2.65784 4.22424 2.31032V1" stroke="#5A8661" stroke-width="1.6" stroke-linecap="round" stroke-linejoin="round"/>
</svg>
